<?xml version="1.0" standalone="no"?><!DOCTYPE svg PUBLIC "-//W3C//DTD SVG 1.1//EN" "http://www.w3.org/Graphics/SVG/1.1/DTD/svg11.dtd"><svg t="1500531678571" class="icon" style="" viewBox="0 0 1025 1024" version="1.1" xmlns="http://www.w3.org/2000/svg" p-id="3632" xmlns:xlink="http://www.w3.org/1999/xlink" width="32.03125" height="32"><defs><style type="text/css"></style></defs><path d="M512.00181 52.094733c253.591659 0 459.903457 206.311797 459.903457 459.903457S765.593469 971.905267 512.00181 971.905267 52.098354 765.593469 52.098354 511.99819 258.410151 52.094733 512.00181 52.094733M512.00181 0c-282.770502 0-512.00181 229.231308-512.00181 512.00181S229.231308 1024 512.00181 1024s512.00181-229.231308 512.00181-512.00181S794.772313 0 512.00181 0L512.00181 0z" p-id="3633" fill="#cdcdcd"></path><path d="M360.597645 414.049955m-67.288729 0a18.587 18.587 0 1 0 134.577458 0 18.587 18.587 0 1 0-134.577458 0Z" p-id="3634" fill="#cdcdcd"></path><path d="M663.405975 414.049955m-67.288729 0a18.587 18.587 0 1 0 134.577458 0 18.587 18.587 0 1 0-134.577458 0Z" p-id="3635" fill="#cdcdcd"></path><path d="M330.890252 718.679248c-4.742467 0-9.539237-1.285172-13.8509-4.007566-12.171125-7.656731-15.834772-23.734056-8.16718-35.916042 44.427142-70.615696 120.712077-112.77659 204.05641-112.77659 81.755064 0 157.265275 40.955366 201.985654 109.543748 7.848602 12.044418 4.452851 28.183287-7.606048 36.04637-12.055279 7.859463-28.183287 4.43837-36.04637-7.606048-35.050814-53.774508-94.244767-85.889336-158.333236-85.889336-65.322958 0-125.125106 33.056081-159.973188 88.43434C348.010196 714.367585 339.5534 718.679248 330.890252 718.679248z" p-id="3636" fill="#cdcdcd"></path></svg>